<?xml version="1.0" encoding="UTF-8" standalone="no"?>
<svg
   xmlns:dc="http://purl.org/dc/elements/1.1/"
   xmlns:cc="http://creativecommons.org/ns#"
   xmlns:rdf="http://www.w3.org/1999/02/22-rdf-syntax-ns#"
   xmlns:svg="http://www.w3.org/2000/svg"
   xmlns="http://www.w3.org/2000/svg"
   xmlns:sodipodi="http://sodipodi.sourceforge.net/DTD/sodipodi-0.dtd"
   xmlns:inkscape="http://www.inkscape.org/namespaces/inkscape"
   width="192.00006mm"
   height="192.00012mm"
   viewBox="0 0 192.00006 192.00012"
   version="1.1"
   id="svg8"
   inkscape:export-filename="C:\Users\Pallag Jonatan\Desktop\logo512.png"
   inkscape:export-xdpi="67.733963"
   inkscape:export-ydpi="67.733963"
   inkscape:version="1.0.1 (3bc2e813f5, 2020-09-07)"
   sodipodi:docname="logo.svg">
  <defs
     id="defs2" />
  <sodipodi:namedview
     id="base"
     pagecolor="#ffffff"
     bordercolor="#666666"
     borderopacity="1.0"
     inkscape:pageopacity="0.0"
     inkscape:pageshadow="2"
     inkscape:zoom="0.49497475"
     inkscape:cx="739.58888"
     inkscape:cy="280.60719"
     inkscape:document-units="mm"
     inkscape:current-layer="g939"
     inkscape:document-rotation="0"
     showgrid="false"
     fit-margin-top="0"
     fit-margin-left="0"
     fit-margin-right="0"
     fit-margin-bottom="0"
     inkscape:window-width="1420"
     inkscape:window-height="1040"
     inkscape:window-x="156"
     inkscape:window-y="0"
     inkscape:window-maximized="0" />
  <metadata
     id="metadata5">
    <rdf:RDF>
      <cc:Work
         rdf:about="">
        <dc:format>image/svg+xml</dc:format>
        <dc:type
           rdf:resource="http://purl.org/dc/dcmitype/StillImage" />
        <dc:title></dc:title>
      </cc:Work>
    </rdf:RDF>
  </metadata>
  <g
     inkscape:label="Réteg 1"
     inkscape:groupmode="layer"
     id="layer1"
     transform="translate(-59.589997,-27.043561)">
    <g
       id="g939"
       transform="matrix(2.3460643,0,0,2.3460643,-80.212059,-36.402632)"
       style="fill:#008000">
      <rect
         style="fill:#198754;fill-opacity:1;fill-rule:evenodd;stroke-width:0;stroke-opacity:0.637097"
         id="rect943"
         width="81.839188"
         height="81.839188"
         x="59.590034"
         y="27.043673"
         ry="40.919594"
         inkscape:export-xdpi="25.4"
         inkscape:export-ydpi="25.4" />
      <g
         id="g986"
         transform="matrix(0.96118867,0,0,0.96118867,5.7053385,1.0588429)"
         inkscape:export-xdpi="25.4"
         inkscape:export-ydpi="25.4">
        <path
           id="path847"
           style="fill:#ffffff;fill-opacity:1;stroke-width:0.225346"
           d="m 113.58311,87.567376 c -1.98719,0.725871 -3.4773,2.32838 -5.43193,3.129031 -2.50101,1.270919 -5.19592,2.130391 -8.04304,2.118178 -1.220027,0.05662 -2.441267,0.08266 -3.66196,0.121711 -0.112418,-1.096418 -1.140426,-2.058802 -2.300941,-1.896572 -1.76432,0.0085 -3.489897,0.46692 -5.200653,0.83624 -1.099594,0.256356 -2.21792,1.247755 -1.915056,2.44947 0.338048,1.453165 1.734983,2.283559 2.718289,3.302536 0.979187,0.883987 2.089649,1.919311 3.499086,1.950309 0.764119,-0.05673 1.397877,-0.595044 1.792074,-1.207225 4.847328,0.339722 9.845391,-0.107695 14.329981,-2.045754 2.62263,-1.125093 5.12146,-2.573653 7.32445,-4.365022 0.65489,-0.667941 0.64722,-1.837656 -0.10966,-2.429741 -0.77579,-0.883872 -1.73575,-1.912063 -3.00064,-1.963161 z"
           inkscape:export-xdpi="67.733292"
           inkscape:export-ydpi="67.733292" />
        <path
           id="path861"
           style="fill:#ffffff;fill-opacity:1;stroke-width:0.225346"
           d="m 107.72396,43.834208 c -1.46312,0.170026 -2.14422,1.74973 -2.1316,3.03531 -0.0291,0.672653 -0.0134,1.346196 -0.0187,2.019245 3.33456,1.439044 6.75241,2.853493 9.28013,5.495985 1.80087,1.748275 3.23635,3.866506 4.38166,6.053284 -0.957,0.705632 -1.21754,2.211697 -0.33332,3.077123 1.14481,1.626463 2.39908,3.248779 4.04551,4.413361 1.13052,0.577925 2.66697,-0.09125 2.97415,-1.307956 0.74375,-1.734056 1.01991,-3.62067 1.23905,-5.474792 0.0383,-1.184744 -1.00836,-2.358519 -2.27337,-2.192336 -0.32649,-0.222857 -0.44262,-0.81293 -0.69611,-1.167315 -3.23243,-6.404092 -9.05487,-11.529228 -15.93443,-13.923927 -0.17554,-0.03272 -0.3552,-0.04664 -0.53296,-0.02798 z"
           inkscape:export-xdpi="67.733292"
           inkscape:export-ydpi="67.733292" />
        <path
           id="path859"
           style="fill:#ffffff;fill-opacity:1;stroke-width:0.225346"
           d="m 81.852979,48.607314 c -2.00486,0.280247 -3.965776,0.869882 -5.825513,1.645899 -1.040262,0.518789 -1.653578,1.856946 -1.037327,2.898427 0.413595,0.328931 -0.202991,0.632007 -0.345317,0.949555 -2.702176,3.707548 -4.513393,8.051746 -5.195653,12.557495 -0.290191,2.612348 -0.183374,5.251911 -0.05757,7.869878 0.14395,0.968732 1.082304,1.791386 2.109077,1.601095 1.119686,-0.09925 2.274033,-0.459854 3.151537,-1.158348 0.779506,-0.762508 0.611196,-1.910951 0.428193,-2.868017 -0.634599,-4.976257 0.913612,-10.069936 3.728473,-14.173528 0.176169,-0.468773 0.447269,-0.428539 0.862304,-0.291886 1.198662,0.246366 2.382001,-0.629832 2.65026,-1.764132 0.732941,-1.710999 1.569511,-3.430456 1.846791,-5.276818 -0.0204,-1.156066 -1.171028,-2.054502 -2.31525,-1.98962 z"
           inkscape:export-xdpi="67.733292"
           inkscape:export-ydpi="67.733292" />
        <g
           id="g871"
           transform="matrix(1.0800063,0,0,1.0573005,-13.187388,-7.2599361)"
           style="fill:#ffffff;fill-opacity:1"
           inkscape:export-xdpi="67.733292"
           inkscape:export-ydpi="67.733292">
          <path
             style="fill:#ffffff;fill-opacity:1;stroke-width:0.264583"
             d="m 128.63376,89.718184 c 1.67128,-0.852626 3.33433,-2.532066 4.14795,-4.188841 0.63996,-1.303158 0.73167,-1.79495 0.72238,-3.8739 -0.009,-1.960433 -0.1193,-2.591657 -0.62553,-3.571875 -1.40326,-2.717133 -3.05016,-4.131826 -5.71027,-4.90514 -4.26632,-1.240255 -8.71822,0.881383 -10.63508,5.068348 -0.7771,1.6974 -0.88093,4.567894 -0.23178,6.407764 0.82563,2.340099 2.88586,4.508688 5.0886,5.356233 2.1241,0.817293 5.32132,0.68815 7.24373,-0.292589 z"
             id="path857" />
          <path
             id="path855"
             style="fill:#ffffff;fill-opacity:1;stroke-width:0.264583"
             d="m 124.44141,69.089844 c -5.42287,0.17238 -10.4074,4.193941 -11.91491,9.36908 -0.40291,1.856832 -0.15526,3.772356 -0.21031,5.654291 0.19045,2.205108 1.36574,4.194682 2.66088,5.93502 2.27637,2.870128 5.85704,4.879452 9.58465,4.694788 2.13722,0.01129 4.36103,-0.154606 6.25172,-1.249783 2.67153,-1.441451 4.92931,-3.761915 6.12601,-6.565506 1.87694,-4.523847 0.92326,-10.082052 -2.44659,-13.659958 -2.52721,-2.770565 -6.30704,-4.32795 -10.05145,-4.177932 z" />
        </g>
        <path
           id="path863"
           style="fill:#ffffff;fill-opacity:1;stroke-width:0.279747"
           d="m 94.275708,32.740241 c -0.136038,9.66e-4 -0.272122,0.0037 -0.408033,0.0081 -5.123358,0.176375 -10.071755,3.314628 -12.090265,7.967011 -1.863,3.923906 -1.51204,8.69104 0.758995,12.383292 2.116783,3.479819 5.90182,6.153356 10.091811,6.438798 2.543489,0.13912 5.239644,0.149098 7.536864,-1.082723 4.22378,-1.959191 7.42363,-6.025681 7.94054,-10.614143 0.50632,-3.932249 -0.89123,-8.062006 -3.79252,-10.844685 -1.85298,-2.083779 -4.41426,-3.526868 -7.196895,-4.003088 -0.934357,-0.179394 -1.888229,-0.259396 -2.840497,-0.252629 z m 0.297114,4.199846 c 2.067971,0.03899 4.124635,0.728206 5.865098,2.074492 2.29643,1.776344 3.78985,5.296058 3.4406,8.109383 -0.40616,3.271724 -2.48927,6.139333 -5.480006,7.543798 -1.643739,0.771909 -5.574174,0.997044 -7.13793,0.408921 -1.537622,-0.578294 -3.172962,-1.663021 -4.066493,-2.697435 -2.501053,-2.895396 -3.020368,-6.90613 -1.329522,-10.268518 0.546989,-1.087734 1.399018,-2.239053 2.078279,-2.808251 1.928093,-1.615678 4.286274,-2.406584 6.629974,-2.36239 z"
           inkscape:export-xdpi="67.733292"
           inkscape:export-ydpi="67.733292" />
        <g
           id="g908"
           transform="matrix(1.0714295,0,0,1.0489041,-0.79757965,-11.047562)"
           style="fill:#ffffff;fill-opacity:1"
           inkscape:export-xdpi="67.733292"
           inkscape:export-ydpi="67.733292">
          <path
             id="path851"
             style="fill:#ffffff;fill-opacity:1;stroke-width:2.92013"
             d="m 142.42383,401.36328 c -1.34651,0.003 -2.69172,0.0213 -4.03711,0.0566 -34.21788,1.16137 -68.840611,13.81954 -92.429689,39.29297 -23.7886,22.02701 -41.1845033,51.66755 -44.7207029,84.23828 -8.033444,58.2088 23.6841739,120.37244 77.4238279,145.37305 19.3475,9.49467 40.612084,16.66753 62.265624,17.08594 34.94947,-3.59157 71.38488,-13.09407 97.50195,-37.94336 37.33853,-33.75074 54.54126,-87.92964 43.04297,-136.98828 -11.88037,-53.48615 -56.5035,-98.90019 -110.9375,-108.48829 -9.24439,-1.84477 -18.68378,-2.64503 -28.10937,-2.62695 z m 0.6875,45.07617 c 21.36428,0.11047 27.17642,1.30335 41.73047,8.5625 20.64244,10.29587 38.04607,28.60633 48.13281,50.63867 6.06937,13.25723 7.55449,20.9104 7.46289,38.47266 -0.24296,46.43085 -28.91233,82.96773 -74.6543,95.14453 -17.15498,4.56673 -27.67494,4.80567 -43.85547,0.99219 C 92.707576,633.36334 64.182746,609.92381 51.935547,582.73828 47.259684,572.3591 45.6713,562.82727 45.505859,544.13477 c -0.188761,-21.32769 0.892027,-27.08061 7.671875,-40.88086 10.484745,-21.34151 27.404221,-38.42708 48.136716,-48.60743 14.73041,-7.2331 20.25863,-8.31861 41.79688,-8.20703 z"
             transform="matrix(0.09060659,0,0,0.09060659,61.678127,41.745888)" />
        </g>
        <path
           sodipodi:type="star"
           style="opacity:1;fill:#ffffff;fill-opacity:1;fill-rule:evenodd;stroke-width:0;stroke-opacity:0.637097"
           id="path910"
           sodipodi:sides="3"
           sodipodi:cx="74.669632"
           sodipodi:cy="52.357582"
           sodipodi:r1="10.193532"
           sodipodi:r2="5.0967655"
           sodipodi:arg1="-0.59469988"
           sodipodi:arg2="0.45249767"
           inkscape:flatsided="true"
           inkscape:rounded="0"
           inkscape:randomized="0"
           d="M 83.113105,46.646552 75.393793,62.525359 65.501998,47.900835 Z"
           inkscape:transform-center-x="1.0023965"
           inkscape:transform-center-y="1.2408688"
           transform="matrix(0.84988286,-0.13376872,0.13664144,0.83201515,8.1074841,20.052063)"
           inkscape:export-xdpi="67.733292"
           inkscape:export-ydpi="67.733292" />
        <path
           sodipodi:type="star"
           style="opacity:1;fill:#ffffff;fill-opacity:1;fill-rule:evenodd;stroke-width:0;stroke-opacity:0.637097"
           id="path912"
           sodipodi:sides="3"
           sodipodi:cx="74.669632"
           sodipodi:cy="52.357582"
           sodipodi:r1="10.193532"
           sodipodi:r2="5.0967655"
           sodipodi:arg1="-0.59469988"
           sodipodi:arg2="0.45249767"
           inkscape:flatsided="true"
           inkscape:rounded="0"
           inkscape:randomized="0"
           d="M 83.113105,46.646552 75.393793,62.525359 65.501998,47.900835 Z"
           inkscape:transform-center-x="1.002398"
           inkscape:transform-center-y="1.2408691"
           transform="matrix(0.84988286,-0.13376872,0.13664144,0.83201515,52.391355,28.251279)"
           inkscape:export-xdpi="67.733292"
           inkscape:export-ydpi="67.733292" />
        <path
           sodipodi:type="star"
           style="opacity:1;fill:#ffffff;fill-opacity:1;fill-rule:evenodd;stroke-width:0;stroke-opacity:0.637097"
           id="path914"
           sodipodi:sides="3"
           sodipodi:cx="74.669632"
           sodipodi:cy="52.357582"
           sodipodi:r1="10.193532"
           sodipodi:r2="5.0967655"
           sodipodi:arg1="-0.59469988"
           sodipodi:arg2="0.45249767"
           inkscape:flatsided="true"
           inkscape:rounded="0"
           inkscape:randomized="0"
           d="M 83.113105,46.646552 75.393793,62.525359 65.501998,47.900835 Z"
           inkscape:transform-center-x="1.0023961"
           inkscape:transform-center-y="1.2408699"
           transform="matrix(0.84988286,-0.13376872,0.13664144,0.83201515,21.872512,61.250073)"
           inkscape:export-xdpi="67.733292"
           inkscape:export-ydpi="67.733292" />
        <path
           id="path945"
           style="fill:#ffffff;fill-opacity:1;stroke-width:0.225346"
           d="m 107.72396,43.834208 c -1.46312,0.170026 -2.14422,1.74973 -2.1316,3.03531 -0.0291,0.672653 -0.0134,1.346196 -0.0187,2.019245 3.33456,1.439044 6.75241,2.853493 9.28013,5.495985 1.80087,1.748275 3.23635,3.866506 4.38166,6.053284 -0.957,0.705632 -1.21754,2.211697 -0.33332,3.077123 1.14481,1.626463 2.39908,3.248779 4.04551,4.413361 1.13052,0.577925 2.66697,-0.09125 2.97415,-1.307956 0.74375,-1.734056 1.01991,-3.62067 1.23905,-5.474792 0.0383,-1.184744 -1.00836,-2.358519 -2.27337,-2.192336 -0.32649,-0.222857 -0.44262,-0.81293 -0.69611,-1.167315 -3.23243,-6.404092 -9.05487,-11.529228 -15.93443,-13.923927 -0.17554,-0.03272 -0.3552,-0.04664 -0.53296,-0.02798 z"
           inkscape:export-xdpi="67.733292"
           inkscape:export-ydpi="67.733292" />
        <path
           sodipodi:type="star"
           style="opacity:1;fill:#ffffff;fill-opacity:1;fill-rule:evenodd;stroke-width:0;stroke-opacity:0.637097"
           id="path947"
           sodipodi:sides="3"
           sodipodi:cx="74.669632"
           sodipodi:cy="52.357582"
           sodipodi:r1="10.193532"
           sodipodi:r2="5.0967655"
           sodipodi:arg1="-0.59469988"
           sodipodi:arg2="0.45249767"
           inkscape:flatsided="true"
           inkscape:rounded="0"
           inkscape:randomized="0"
           d="M 83.113105,46.646552 75.393793,62.525359 65.501998,47.900835 Z"
           inkscape:transform-center-x="1.002398"
           inkscape:transform-center-y="1.2408691"
           transform="matrix(0.84988286,-0.13376872,0.13664144,0.83201515,52.391355,28.251279)"
           inkscape:export-xdpi="67.733292"
           inkscape:export-ydpi="67.733292" />
        <g
           id="g953"
           transform="matrix(1.0800063,0,0,1.0573005,-13.187388,-7.2599361)"
           style="fill:#ffffff;fill-opacity:1"
           inkscape:export-xdpi="67.733292"
           inkscape:export-ydpi="67.733292">
          <path
             style="fill:#ffffff;fill-opacity:1;stroke-width:0.264583"
             d="m 128.63376,89.718184 c 1.67128,-0.852626 3.33433,-2.532066 4.14795,-4.188841 0.63996,-1.303158 0.73167,-1.79495 0.72238,-3.8739 -0.009,-1.960433 -0.1193,-2.591657 -0.62553,-3.571875 -1.40326,-2.717133 -3.05016,-4.131826 -5.71027,-4.90514 -4.26632,-1.240255 -8.71822,0.881383 -10.63508,5.068348 -0.7771,1.6974 -0.88093,4.567894 -0.23178,6.407764 0.82563,2.340099 2.88586,4.508688 5.0886,5.356233 2.1241,0.817293 5.32132,0.68815 7.24373,-0.292589 z"
             id="path949" />
          <path
             id="path951"
             style="fill:#ffffff;fill-opacity:1;stroke-width:0.264583"
             d="m 124.44141,69.089844 c -5.42287,0.17238 -10.4074,4.193941 -11.91491,9.36908 -0.40291,1.856832 -0.15526,3.772356 -0.21031,5.654291 0.19045,2.205108 1.36574,4.194682 2.66088,5.93502 2.27637,2.870128 5.85704,4.879452 9.58465,4.694788 2.13722,0.01129 4.36103,-0.154606 6.25172,-1.249783 2.67153,-1.441451 4.92931,-3.761915 6.12601,-6.565506 1.87694,-4.523847 0.92326,-10.082052 -2.44659,-13.659958 -2.52721,-2.770565 -6.30704,-4.32795 -10.05145,-4.177932 z" />
        </g>
        <path
           id="path955"
           style="fill:#ffffff;fill-opacity:1;stroke-width:0.225346"
           d="m 113.58311,87.567376 c -1.98719,0.725871 -3.4773,2.32838 -5.43193,3.129031 -2.50101,1.270919 -5.19592,2.130391 -8.04304,2.118178 -1.220027,0.05662 -2.441267,0.08266 -3.66196,0.121711 -0.112418,-1.096418 -1.140426,-2.058802 -2.300941,-1.896572 -1.76432,0.0085 -3.489897,0.46692 -5.200653,0.83624 -1.099594,0.256356 -2.21792,1.247755 -1.915056,2.44947 0.338048,1.453165 1.734983,2.283559 2.718289,3.302536 0.979187,0.883987 2.089649,1.919311 3.499086,1.950309 0.764119,-0.05673 1.397877,-0.595044 1.792074,-1.207225 4.847328,0.339722 9.845391,-0.107695 14.329981,-2.045754 2.62263,-1.125093 5.12146,-2.573653 7.32445,-4.365022 0.65489,-0.667941 0.64722,-1.837656 -0.10966,-2.429741 -0.77579,-0.883872 -1.73575,-1.912063 -3.00064,-1.963161 z"
           inkscape:export-xdpi="67.733292"
           inkscape:export-ydpi="67.733292" />
        <path
           sodipodi:type="star"
           style="opacity:1;fill:#ffffff;fill-opacity:1;fill-rule:evenodd;stroke-width:0;stroke-opacity:0.637097"
           id="path957"
           sodipodi:sides="3"
           sodipodi:cx="74.669632"
           sodipodi:cy="52.357582"
           sodipodi:r1="10.193532"
           sodipodi:r2="5.0967655"
           sodipodi:arg1="-0.59469988"
           sodipodi:arg2="0.45249767"
           inkscape:flatsided="true"
           inkscape:rounded="0"
           inkscape:randomized="0"
           d="M 83.113105,46.646552 75.393793,62.525359 65.501998,47.900835 Z"
           inkscape:transform-center-x="1.0023961"
           inkscape:transform-center-y="1.2408699"
           transform="matrix(0.84988286,-0.13376872,0.13664144,0.83201515,21.872512,61.250073)"
           inkscape:export-xdpi="67.733292"
           inkscape:export-ydpi="67.733292" />
        <path
           id="path959"
           style="fill:#ffffff;fill-opacity:1;stroke-width:0.225346"
           d="m 81.852979,48.607314 c -2.00486,0.280247 -3.965776,0.869882 -5.825513,1.645899 -1.040262,0.518789 -1.653578,1.856946 -1.037327,2.898427 0.413595,0.328931 -0.202991,0.632007 -0.345317,0.949555 -2.702176,3.707548 -4.513393,8.051746 -5.195653,12.557495 -0.290191,2.612348 -0.183374,5.251911 -0.05757,7.869878 0.14395,0.968732 1.082304,1.791386 2.109077,1.601095 1.119686,-0.09925 2.274033,-0.459854 3.151537,-1.158348 0.779506,-0.762508 0.611196,-1.910951 0.428193,-2.868017 -0.634599,-4.976257 0.913612,-10.069936 3.728473,-14.173528 0.176169,-0.468773 0.447269,-0.428539 0.862304,-0.291886 1.198662,0.246366 2.382001,-0.629832 2.65026,-1.764132 0.732941,-1.710999 1.569511,-3.430456 1.846791,-5.276818 -0.0204,-1.156066 -1.171028,-2.054502 -2.31525,-1.98962 z"
           inkscape:export-xdpi="67.733292"
           inkscape:export-ydpi="67.733292" />
        <path
           sodipodi:type="star"
           style="opacity:1;fill:#ffffff;fill-opacity:1;fill-rule:evenodd;stroke-width:0;stroke-opacity:0.637097"
           id="path961"
           sodipodi:sides="3"
           sodipodi:cx="74.669632"
           sodipodi:cy="52.357582"
           sodipodi:r1="10.193532"
           sodipodi:r2="5.0967655"
           sodipodi:arg1="-0.59469988"
           sodipodi:arg2="0.45249767"
           inkscape:flatsided="true"
           inkscape:rounded="0"
           inkscape:randomized="0"
           d="M 83.113105,46.646552 75.393793,62.525359 65.501998,47.900835 Z"
           inkscape:transform-center-x="1.0023965"
           inkscape:transform-center-y="1.2408688"
           transform="matrix(0.84988286,-0.13376872,0.13664144,0.83201515,8.1074841,20.052063)"
           inkscape:export-xdpi="67.733292"
           inkscape:export-ydpi="67.733292" />
        <g
           id="g992"
           transform="matrix(1.0800063,0,0,1.0573005,-40.121799,-40.308486)"
           style="fill:#ffffff;fill-opacity:1"
           inkscape:export-xdpi="67.733292"
           inkscape:export-ydpi="67.733292">
          <path
             style="fill:#ffffff;fill-opacity:1;stroke-width:0.264583"
             d="m 128.63376,89.718184 c 1.67128,-0.852626 3.33433,-2.532066 4.14795,-4.188841 0.63996,-1.303158 0.73167,-1.79495 0.72238,-3.8739 -0.009,-1.960433 -0.1193,-2.591657 -0.62553,-3.571875 -1.40326,-2.717133 -3.05016,-4.131826 -5.71027,-4.90514 -4.26632,-1.240255 -8.71822,0.881383 -10.63508,5.068348 -0.7771,1.6974 -0.88093,4.567894 -0.23178,6.407764 0.82563,2.340099 2.88586,4.508688 5.0886,5.356233 2.1241,0.817293 5.32132,0.68815 7.24373,-0.292589 z"
             id="path988" />
          <path
             id="path990"
             style="fill:#ffffff;fill-opacity:1;stroke-width:0.264583"
             d="m 124.44141,69.089844 c -5.42287,0.17238 -10.4074,4.193941 -11.91491,9.36908 -0.40291,1.856832 -0.15526,3.772356 -0.21031,5.654291 0.19045,2.205108 1.36574,4.194682 2.66088,5.93502 2.27637,2.870128 5.85704,4.879452 9.58465,4.694788 2.13722,0.01129 4.36103,-0.154606 6.25172,-1.249783 2.67153,-1.441451 4.92931,-3.761915 6.12601,-6.565506 1.87694,-4.523847 0.92326,-10.082052 -2.44659,-13.659958 -2.52721,-2.770565 -6.30704,-4.32795 -10.05145,-4.177932 z" />
        </g>
        <g
           id="g998"
           transform="matrix(1.0800063,0,0,1.0573005,-40.121799,-40.308486)"
           style="fill:#ffffff;fill-opacity:1"
           inkscape:export-xdpi="67.733292"
           inkscape:export-ydpi="67.733292">
          <path
             style="fill:#ffffff;fill-opacity:1;stroke-width:0.264583"
             d="m 128.63376,89.718184 c 1.67128,-0.852626 3.33433,-2.532066 4.14795,-4.188841 0.63996,-1.303158 0.73167,-1.79495 0.72238,-3.8739 -0.009,-1.960433 -0.1193,-2.591657 -0.62553,-3.571875 -1.40326,-2.717133 -3.05016,-4.131826 -5.71027,-4.90514 -4.26632,-1.240255 -8.71822,0.881383 -10.63508,5.068348 -0.7771,1.6974 -0.88093,4.567894 -0.23178,6.407764 0.82563,2.340099 2.88586,4.508688 5.0886,5.356233 2.1241,0.817293 5.32132,0.68815 7.24373,-0.292589 z"
             id="path994" />
          <path
             id="path996"
             style="fill:#ffffff;fill-opacity:1;stroke-width:0.264583"
             d="m 124.44141,69.089844 c -5.42287,0.17238 -10.4074,4.193941 -11.91491,9.36908 -0.40291,1.856832 -0.15526,3.772356 -0.21031,5.654291 0.19045,2.205108 1.36574,4.194682 2.66088,5.93502 2.27637,2.870128 5.85704,4.879452 9.58465,4.694788 2.13722,0.01129 4.36103,-0.154606 6.25172,-1.249783 2.67153,-1.441451 4.92931,-3.761915 6.12601,-6.565506 1.87694,-4.523847 0.92326,-10.082052 -2.44659,-13.659958 -2.52721,-2.770565 -6.30704,-4.32795 -10.05145,-4.177932 z" />
        </g>
      </g>
    </g>
  </g>
</svg>
